<svg xmlns="http://www.w3.org/2000/svg" viewBox="0 0 420 128" fill="none">
  <defs>
    <linearGradient id="g" x1="0" y1="0" x2="128" y2="128" gradientUnits="userSpaceOnUse">
      <stop offset="0%" stop-color="#f97316"/>
      <stop offset="60%" stop-color="#ef4444"/>
      <stop offset="100%" stop-color="#ec4899"/>
    </linearGradient>
  </defs>

  <!-- Left curly brace -->
  <path d="M38 24 Q38 24 32 24 Q20 24 20 38 L20 52 Q20 64 10 64 Q20 64 20 76 L20 90 Q20 104 32 104 Q38 104 38 104"
        stroke="url(#g)" stroke-width="6" stroke-linecap="round" fill="none"/>

  <!-- Right curly brace -->
  <path d="M90 24 Q90 24 96 24 Q108 24 108 38 L108 52 Q108 64 118 64 Q108 64 108 76 L108 90 Q108 104 96 104 Q90 104 90 104"
        stroke="url(#g)" stroke-width="6" stroke-linecap="round" fill="none"/>

  <!-- Music note -->
  <g fill="url(#g)">
    <rect x="72" y="36" width="4" height="48" rx="2"/>
    <ellipse cx="62" cy="82" rx="13" ry="9" transform="rotate(-15, 62, 82)"/>
    <path d="M76 36 Q90 44 86 58 Q83 50 76 46 Z"/>
  </g>

  <!-- Text -->
  <text x="140" y="78" font-family="'Inter', 'SF Pro Display', -apple-system, 'Segoe UI', Helvetica, Arial, sans-serif" font-size="48" font-weight="700" letter-spacing="-1.5">
    <tspan fill="#e0e0e0">cider</tspan><tspan fill="url(#g)">-api</tspan>
  </text>
</svg>
